# xmcd CD database file
#
# Track frame offsets:
#	150
#	110175
#	133002
#	163972
#	170775
#
# Disc length: 2782 seconds
#
# Revision: 0
# Processed by: cddbd v1.5.2PL0 Copyright (c) Steve Scherf et al.
# Submitted via: CDex 1.70beta2
#
DISCID=4b0adc05
DTITLE=Collin Walcott - Grazing Dreams
DYEAR=1977
DGENRE=Jazz
TTITLE0=Changeless Faith
TTITLE1=Jewel Ornamento
TTITLE2=Grazing Dreams
TTITLE3=Samba Tala
TTITLE4=Moon Lake
EXTD=YEAR: 1977
EXTT0=
EXTT1=
EXTT2=
EXTT3=
EXTT4=
PLAYORDER=
